#N canvas -1 1 319 473 10;
#N canvas 1173 77 663 695 man_vocode 1;
#X obj 57 253 route 0 1 2 3 4 5 6 7 8 9 10 11 12 13 14 15 16 17 18
19;
#X floatatom 256 118 5 0 0 0 - - -;
#N canvas 379 514 450 300 unpacker 0;
#X obj 65 61 unpack 0 0 0 0;
#X floatatom 65 135 5 0 0 0 - - -;
#X floatatom 92 119 5 0 0 0 - - -;
#X floatatom 119 102 5 0 0 0 - - -;
#X floatatom 146 86 5 0 0 0 - - -;
#X obj 65 185 osc~;
#X obj 65 216 *~;
#X obj 65 37 inlet;
#X obj 64 247 outlet~;
#X obj 125 134 inlet;
#X obj 65 161 *;
#X connect 0 0 1 0;
#X connect 0 1 2 0;
#X connect 0 2 3 0;
#X connect 0 3 4 0;
#X connect 1 0 10 0;
#X connect 2 0 6 1;
#X connect 5 0 6 0;
#X connect 6 0 8 0;
#X connect 7 0 0 0;
#X connect 9 0 10 1;
#X connect 10 0 5 0;
#X restore 57 281 pd unpacker;
#X obj 57 421 +~;
#X obj 90 421 +~;
#X obj 122 421 +~;
#X obj 155 421 +~;
#X obj 188 421 +~;
#X obj 56 451 +~;
#X obj 89 451 +~;
#X obj 220 421 +~;
#X obj 253 421 +~;
#X obj 286 421 +~;
#X obj 318 421 +~;
#X obj 351 421 +~;
#X obj 121 451 +~;
#X obj 154 451 +~;
#X obj 187 451 +~;
#X obj 56 480 +~;
#X obj 89 480 +~;
#X obj 56 507 +~;
#X obj 56 532 +~;
#X floatatom 221 227 5 0 0 0 - - -;
#X floatatom 221 119 5 0 0 0 - - -;
#X obj 221 203 /;
#X obj 228 180 bng 15 250 50 0 empty empty empty 17 7 0 10 -262144
-1 -1;
#N canvas 379 514 450 300 unpacker 0;
#X obj 65 61 unpack 0 0 0 0;
#X floatatom 65 135 5 0 0 0 - - -;
#X floatatom 92 119 5 0 0 0 - - -;
#X floatatom 119 102 5 0 0 0 - - -;
#X floatatom 146 86 5 0 0 0 - - -;
#X obj 65 185 osc~;
#X obj 65 216 *~;
#X obj 65 37 inlet;
#X obj 64 247 outlet~;
#X obj 125 134 inlet;
#X obj 65 161 *;
#X connect 0 0 1 0;
#X connect 0 1 2 0;
#X connect 0 2 3 0;
#X connect 0 3 4 0;
#X connect 1 0 10 0;
#X connect 2 0 6 1;
#X connect 5 0 6 0;
#X connect 6 0 8 0;
#X connect 7 0 0 0;
#X connect 9 0 10 1;
#X connect 10 0 5 0;
#X restore 73 298 pd unpacker;
#N canvas 379 514 450 300 unpacker 0;
#X obj 65 61 unpack 0 0 0 0;
#X floatatom 65 135 5 0 0 0 - - -;
#X floatatom 92 119 5 0 0 0 - - -;
#X floatatom 119 102 5 0 0 0 - - -;
#X floatatom 146 86 5 0 0 0 - - -;
#X obj 65 185 osc~;
#X obj 65 216 *~;
#X obj 65 37 inlet;
#X obj 64 247 outlet~;
#X obj 125 134 inlet;
#X obj 65 161 *;
#X connect 0 0 1 0;
#X connect 0 1 2 0;
#X connect 0 2 3 0;
#X connect 0 3 4 0;
#X connect 1 0 10 0;
#X connect 2 0 6 1;
#X connect 5 0 6 0;
#X connect 6 0 8 0;
#X connect 7 0 0 0;
#X connect 9 0 10 1;
#X connect 10 0 5 0;
#X restore 89 315 pd unpacker;
#N canvas 379 514 450 300 unpacker 0;
#X obj 65 61 unpack 0 0 0 0;
#X floatatom 65 135 5 0 0 0 - - -;
#X floatatom 92 119 5 0 0 0 - - -;
#X floatatom 119 102 5 0 0 0 - - -;
#X floatatom 146 86 5 0 0 0 - - -;
#X obj 65 185 osc~;
#X obj 65 216 *~;
#X obj 65 37 inlet;
#X obj 64 247 outlet~;
#X obj 125 134 inlet;
#X obj 65 161 *;
#X connect 0 0 1 0;
#X connect 0 1 2 0;
#X connect 0 2 3 0;
#X connect 0 3 4 0;
#X connect 1 0 10 0;
#X connect 2 0 6 1;
#X connect 5 0 6 0;
#X connect 6 0 8 0;
#X connect 7 0 0 0;
#X connect 9 0 10 1;
#X connect 10 0 5 0;
#X restore 106 332 pd unpacker;
#N canvas 379 514 450 300 unpacker 0;
#X obj 65 61 unpack 0 0 0 0;
#X floatatom 65 135 5 0 0 0 - - -;
#X floatatom 92 119 5 0 0 0 - - -;
#X floatatom 119 102 5 0 0 0 - - -;
#X floatatom 146 86 5 0 0 0 - - -;
#X obj 65 185 osc~;
#X obj 65 216 *~;
#X obj 65 37 inlet;
#X obj 64 247 outlet~;
#X obj 125 134 inlet;
#X obj 65 161 *;
#X connect 0 0 1 0;
#X connect 0 1 2 0;
#X connect 0 2 3 0;
#X connect 0 3 4 0;
#X connect 1 0 10 0;
#X connect 2 0 6 1;
#X connect 5 0 6 0;
#X connect 6 0 8 0;
#X connect 7 0 0 0;
#X connect 9 0 10 1;
#X connect 10 0 5 0;
#X restore 122 349 pd unpacker;
#N canvas 379 514 450 300 unpacker 0;
#X obj 65 61 unpack 0 0 0 0;
#X floatatom 65 135 5 0 0 0 - - -;
#X floatatom 92 119 5 0 0 0 - - -;
#X floatatom 119 102 5 0 0 0 - - -;
#X floatatom 146 86 5 0 0 0 - - -;
#X obj 65 185 osc~;
#X obj 65 216 *~;
#X obj 65 37 inlet;
#X obj 64 247 outlet~;
#X obj 125 134 inlet;
#X obj 65 161 *;
#X connect 0 0 1 0;
#X connect 0 1 2 0;
#X connect 0 2 3 0;
#X connect 0 3 4 0;
#X connect 1 0 10 0;
#X connect 2 0 6 1;
#X connect 5 0 6 0;
#X connect 6 0 8 0;
#X connect 7 0 0 0;
#X connect 9 0 10 1;
#X connect 10 0 5 0;
#X restore 138 366 pd unpacker;
#N canvas 379 514 450 300 unpacker 0;
#X obj 65 61 unpack 0 0 0 0;
#X floatatom 65 135 5 0 0 0 - - -;
#X floatatom 92 119 5 0 0 0 - - -;
#X floatatom 119 102 5 0 0 0 - - -;
#X floatatom 146 86 5 0 0 0 - - -;
#X obj 65 185 osc~;
#X obj 65 216 *~;
#X obj 65 37 inlet;
#X obj 64 247 outlet~;
#X obj 125 134 inlet;
#X obj 65 161 *;
#X connect 0 0 1 0;
#X connect 0 1 2 0;
#X connect 0 2 3 0;
#X connect 0 3 4 0;
#X connect 1 0 10 0;
#X connect 2 0 6 1;
#X connect 5 0 6 0;
#X connect 6 0 8 0;
#X connect 7 0 0 0;
#X connect 9 0 10 1;
#X connect 10 0 5 0;
#X restore 155 280 pd unpacker;
#N canvas 379 514 450 300 unpacker 0;
#X obj 65 61 unpack 0 0 0 0;
#X floatatom 65 135 5 0 0 0 - - -;
#X floatatom 92 119 5 0 0 0 - - -;
#X floatatom 119 102 5 0 0 0 - - -;
#X floatatom 146 86 5 0 0 0 - - -;
#X obj 65 185 osc~;
#X obj 65 216 *~;
#X obj 65 37 inlet;
#X obj 64 247 outlet~;
#X obj 125 134 inlet;
#X obj 65 161 *;
#X connect 0 0 1 0;
#X connect 0 1 2 0;
#X connect 0 2 3 0;
#X connect 0 3 4 0;
#X connect 1 0 10 0;
#X connect 2 0 6 1;
#X connect 5 0 6 0;
#X connect 6 0 8 0;
#X connect 7 0 0 0;
#X connect 9 0 10 1;
#X connect 10 0 5 0;
#X restore 171 297 pd unpacker;
#N canvas 379 514 450 300 unpacker 0;
#X obj 65 61 unpack 0 0 0 0;
#X floatatom 65 135 5 0 0 0 - - -;
#X floatatom 92 119 5 0 0 0 - - -;
#X floatatom 119 102 5 0 0 0 - - -;
#X floatatom 146 86 5 0 0 0 - - -;
#X obj 65 185 osc~;
#X obj 65 216 *~;
#X obj 65 37 inlet;
#X obj 64 247 outlet~;
#X obj 125 134 inlet;
#X obj 65 161 *;
#X connect 0 0 1 0;
#X connect 0 1 2 0;
#X connect 0 2 3 0;
#X connect 0 3 4 0;
#X connect 1 0 10 0;
#X connect 2 0 6 1;
#X connect 5 0 6 0;
#X connect 6 0 8 0;
#X connect 7 0 0 0;
#X connect 9 0 10 1;
#X connect 10 0 5 0;
#X restore 187 314 pd unpacker;
#N canvas 379 514 450 300 unpacker 0;
#X obj 65 61 unpack 0 0 0 0;
#X floatatom 65 135 5 0 0 0 - - -;
#X floatatom 92 119 5 0 0 0 - - -;
#X floatatom 119 102 5 0 0 0 - - -;
#X floatatom 146 86 5 0 0 0 - - -;
#X obj 65 185 osc~;
#X obj 65 216 *~;
#X obj 65 37 inlet;
#X obj 64 247 outlet~;
#X obj 125 134 inlet;
#X obj 65 161 *;
#X connect 0 0 1 0;
#X connect 0 1 2 0;
#X connect 0 2 3 0;
#X connect 0 3 4 0;
#X connect 1 0 10 0;
#X connect 2 0 6 1;
#X connect 5 0 6 0;
#X connect 6 0 8 0;
#X connect 7 0 0 0;
#X connect 9 0 10 1;
#X connect 10 0 5 0;
#X restore 204 331 pd unpacker;
#N canvas 379 514 450 300 unpacker 0;
#X obj 65 61 unpack 0 0 0 0;
#X floatatom 65 135 5 0 0 0 - - -;
#X floatatom 92 119 5 0 0 0 - - -;
#X floatatom 119 102 5 0 0 0 - - -;
#X floatatom 146 86 5 0 0 0 - - -;
#X obj 65 185 osc~;
#X obj 65 216 *~;
#X obj 65 37 inlet;
#X obj 64 247 outlet~;
#X obj 125 134 inlet;
#X obj 65 161 *;
#X connect 0 0 1 0;
#X connect 0 1 2 0;
#X connect 0 2 3 0;
#X connect 0 3 4 0;
#X connect 1 0 10 0;
#X connect 2 0 6 1;
#X connect 5 0 6 0;
#X connect 6 0 8 0;
#X connect 7 0 0 0;
#X connect 9 0 10 1;
#X connect 10 0 5 0;
#X restore 220 348 pd unpacker;
#N canvas 379 514 450 300 unpacker 0;
#X obj 65 61 unpack 0 0 0 0;
#X floatatom 65 135 5 0 0 0 - - -;
#X floatatom 92 119 5 0 0 0 - - -;
#X floatatom 119 102 5 0 0 0 - - -;
#X floatatom 146 86 5 0 0 0 - - -;
#X obj 65 185 osc~;
#X obj 65 216 *~;
#X obj 65 37 inlet;
#X obj 64 247 outlet~;
#X obj 125 134 inlet;
#X obj 65 161 *;
#X connect 0 0 1 0;
#X connect 0 1 2 0;
#X connect 0 2 3 0;
#X connect 0 3 4 0;
#X connect 1 0 10 0;
#X connect 2 0 6 1;
#X connect 5 0 6 0;
#X connect 6 0 8 0;
#X connect 7 0 0 0;
#X connect 9 0 10 1;
#X connect 10 0 5 0;
#X restore 236 365 pd unpacker;
#N canvas 379 514 450 300 unpacker 0;
#X obj 65 61 unpack 0 0 0 0;
#X floatatom 65 135 5 0 0 0 - - -;
#X floatatom 92 119 5 0 0 0 - - -;
#X floatatom 119 102 5 0 0 0 - - -;
#X floatatom 146 86 5 0 0 0 - - -;
#X obj 65 185 osc~;
#X obj 65 216 *~;
#X obj 65 37 inlet;
#X obj 64 247 outlet~;
#X obj 125 134 inlet;
#X obj 65 161 *;
#X connect 0 0 1 0;
#X connect 0 1 2 0;
#X connect 0 2 3 0;
#X connect 0 3 4 0;
#X connect 1 0 10 0;
#X connect 2 0 6 1;
#X connect 5 0 6 0;
#X connect 6 0 8 0;
#X connect 7 0 0 0;
#X connect 9 0 10 1;
#X connect 10 0 5 0;
#X restore 253 280 pd unpacker;
#N canvas 379 514 450 300 unpacker 0;
#X obj 65 61 unpack 0 0 0 0;
#X floatatom 65 135 5 0 0 0 - - -;
#X floatatom 92 119 5 0 0 0 - - -;
#X floatatom 119 102 5 0 0 0 - - -;
#X floatatom 146 86 5 0 0 0 - - -;
#X obj 65 185 osc~;
#X obj 65 216 *~;
#X obj 65 37 inlet;
#X obj 64 247 outlet~;
#X obj 125 134 inlet;
#X obj 65 161 *;
#X connect 0 0 1 0;
#X connect 0 1 2 0;
#X connect 0 2 3 0;
#X connect 0 3 4 0;
#X connect 1 0 10 0;
#X connect 2 0 6 1;
#X connect 5 0 6 0;
#X connect 6 0 8 0;
#X connect 7 0 0 0;
#X connect 9 0 10 1;
#X connect 10 0 5 0;
#X restore 269 297 pd unpacker;
#N canvas 379 514 450 300 unpacker 0;
#X obj 65 61 unpack 0 0 0 0;
#X floatatom 65 135 5 0 0 0 - - -;
#X floatatom 92 119 5 0 0 0 - - -;
#X floatatom 119 102 5 0 0 0 - - -;
#X floatatom 146 86 5 0 0 0 - - -;
#X obj 65 185 osc~;
#X obj 65 216 *~;
#X obj 65 37 inlet;
#X obj 64 247 outlet~;
#X obj 125 134 inlet;
#X obj 65 161 *;
#X connect 0 0 1 0;
#X connect 0 1 2 0;
#X connect 0 2 3 0;
#X connect 0 3 4 0;
#X connect 1 0 10 0;
#X connect 2 0 6 1;
#X connect 5 0 6 0;
#X connect 6 0 8 0;
#X connect 7 0 0 0;
#X connect 9 0 10 1;
#X connect 10 0 5 0;
#X restore 285 314 pd unpacker;
#N canvas 379 514 450 300 unpacker 0;
#X obj 65 61 unpack 0 0 0 0;
#X floatatom 65 135 5 0 0 0 - - -;
#X floatatom 92 119 5 0 0 0 - - -;
#X floatatom 119 102 5 0 0 0 - - -;
#X floatatom 146 86 5 0 0 0 - - -;
#X obj 65 185 osc~;
#X obj 65 216 *~;
#X obj 65 37 inlet;
#X obj 64 247 outlet~;
#X obj 125 134 inlet;
#X obj 65 161 *;
#X connect 0 0 1 0;
#X connect 0 1 2 0;
#X connect 0 2 3 0;
#X connect 0 3 4 0;
#X connect 1 0 10 0;
#X connect 2 0 6 1;
#X connect 5 0 6 0;
#X connect 6 0 8 0;
#X connect 7 0 0 0;
#X connect 9 0 10 1;
#X connect 10 0 5 0;
#X restore 302 331 pd unpacker;
#N canvas 379 514 450 300 unpacker 0;
#X obj 65 61 unpack 0 0 0 0;
#X floatatom 65 135 5 0 0 0 - - -;
#X floatatom 92 119 5 0 0 0 - - -;
#X floatatom 119 102 5 0 0 0 - - -;
#X floatatom 146 86 5 0 0 0 - - -;
#X obj 65 185 osc~;
#X obj 65 216 *~;
#X obj 65 37 inlet;
#X obj 64 247 outlet~;
#X obj 125 134 inlet;
#X obj 65 161 *;
#X connect 0 0 1 0;
#X connect 0 1 2 0;
#X connect 0 2 3 0;
#X connect 0 3 4 0;
#X connect 1 0 10 0;
#X connect 2 0 6 1;
#X connect 5 0 6 0;
#X connect 6 0 8 0;
#X connect 7 0 0 0;
#X connect 9 0 10 1;
#X connect 10 0 5 0;
#X restore 318 348 pd unpacker;
#N canvas 379 514 450 300 unpacker 0;
#X obj 65 61 unpack 0 0 0 0;
#X floatatom 65 135 5 0 0 0 - - -;
#X floatatom 92 119 5 0 0 0 - - -;
#X floatatom 119 102 5 0 0 0 - - -;
#X floatatom 146 86 5 0 0 0 - - -;
#X obj 65 185 osc~;
#X obj 65 216 *~;
#X obj 65 37 inlet;
#X obj 64 247 outlet~;
#X obj 125 134 inlet;
#X obj 65 161 *;
#X connect 0 0 1 0;
#X connect 0 1 2 0;
#X connect 0 2 3 0;
#X connect 0 3 4 0;
#X connect 1 0 10 0;
#X connect 2 0 6 1;
#X connect 5 0 6 0;
#X connect 6 0 8 0;
#X connect 7 0 0 0;
#X connect 9 0 10 1;
#X connect 10 0 5 0;
#X restore 334 365 pd unpacker;
#N canvas 379 514 450 300 unpacker 0;
#X obj 65 61 unpack 0 0 0 0;
#X floatatom 65 135 5 0 0 0 - - -;
#X floatatom 92 119 5 0 0 0 - - -;
#X floatatom 119 102 5 0 0 0 - - -;
#X floatatom 146 86 5 0 0 0 - - -;
#X obj 65 185 osc~;
#X obj 65 216 *~;
#X obj 65 37 inlet;
#X obj 64 247 outlet~;
#X obj 125 134 inlet;
#X obj 65 161 *;
#X connect 0 0 1 0;
#X connect 0 1 2 0;
#X connect 0 2 3 0;
#X connect 0 3 4 0;
#X connect 1 0 10 0;
#X connect 2 0 6 1;
#X connect 5 0 6 0;
#X connect 6 0 8 0;
#X connect 7 0 0 0;
#X connect 9 0 10 1;
#X connect 10 0 5 0;
#X restore 351 279 pd unpacker;
#N canvas 379 514 450 300 unpacker 0;
#X obj 65 61 unpack 0 0 0 0;
#X floatatom 65 135 5 0 0 0 - - -;
#X floatatom 92 119 5 0 0 0 - - -;
#X floatatom 119 102 5 0 0 0 - - -;
#X floatatom 146 86 5 0 0 0 - - -;
#X obj 65 185 osc~;
#X obj 65 216 *~;
#X obj 65 37 inlet;
#X obj 64 247 outlet~;
#X obj 125 134 inlet;
#X obj 65 161 *;
#X connect 0 0 1 0;
#X connect 0 1 2 0;
#X connect 0 2 3 0;
#X connect 0 3 4 0;
#X connect 1 0 10 0;
#X connect 2 0 6 1;
#X connect 5 0 6 0;
#X connect 6 0 8 0;
#X connect 7 0 0 0;
#X connect 9 0 10 1;
#X connect 10 0 5 0;
#X restore 367 296 pd unpacker;
#X floatatom 260 572 5 0 0 0 - - -;
#X obj 221 140 mtof;
#X obj 256 140 mtof;
#X obj 128 600 writesf~ 2;
#X msg 176 549 start;
#X msg 138 562 stop;
#X msg 211 523 open demonvoice.wav;
#X floatatom 221 160 5 0 0 0 - - -;
#X floatatom 256 160 5 0 0 0 - - -;
#X obj 57 39 sigmund~ peaks pitch;
#X obj 260 549 sigmund~ pitch;
#X obj 57 8 inlet~;
#X obj 55 609 outlet~;
#X obj 221 91 inlet;
#X obj 256 91 spigot;
#X obj 256 63 > 40;
#X floatatom 187 65 5 0 0 0 - - -;
#X connect 0 0 2 0;
#X connect 0 1 26 0;
#X connect 0 2 27 0;
#X connect 0 3 28 0;
#X connect 0 4 29 0;
#X connect 0 5 30 0;
#X connect 0 6 31 0;
#X connect 0 7 32 0;
#X connect 0 8 33 0;
#X connect 0 9 34 0;
#X connect 0 10 35 0;
#X connect 0 11 36 0;
#X connect 0 12 37 0;
#X connect 0 13 38 0;
#X connect 0 14 39 0;
#X connect 0 15 40 0;
#X connect 0 16 41 0;
#X connect 0 17 42 0;
#X connect 0 18 43 0;
#X connect 0 19 44 0;
#X connect 1 0 47 0;
#X connect 2 0 3 0;
#X connect 3 0 8 0;
#X connect 4 0 8 1;
#X connect 5 0 9 0;
#X connect 6 0 9 1;
#X connect 7 0 15 0;
#X connect 8 0 18 0;
#X connect 9 0 18 1;
#X connect 10 0 15 1;
#X connect 11 0 16 0;
#X connect 12 0 16 1;
#X connect 13 0 17 0;
#X connect 14 0 17 1;
#X connect 15 0 19 0;
#X connect 16 0 19 1;
#X connect 17 0 21 1;
#X connect 18 0 20 0;
#X connect 19 0 20 1;
#X connect 20 0 21 0;
#X connect 21 0 48 0;
#X connect 21 0 48 1;
#X connect 21 0 55 0;
#X connect 21 0 57 0;
#X connect 22 0 2 1;
#X connect 22 0 26 1;
#X connect 22 0 27 1;
#X connect 22 0 28 1;
#X connect 22 0 29 1;
#X connect 22 0 30 1;
#X connect 22 0 31 1;
#X connect 22 0 32 1;
#X connect 22 0 33 1;
#X connect 22 0 34 1;
#X connect 22 0 35 1;
#X connect 22 0 36 1;
#X connect 22 0 37 1;
#X connect 22 0 38 1;
#X connect 22 0 39 1;
#X connect 22 0 40 1;
#X connect 22 0 41 1;
#X connect 22 0 42 1;
#X connect 22 0 43 1;
#X connect 22 0 44 1;
#X connect 23 0 46 0;
#X connect 24 0 22 0;
#X connect 25 0 24 0;
#X connect 26 0 3 1;
#X connect 27 0 4 0;
#X connect 28 0 4 1;
#X connect 29 0 5 0;
#X connect 30 0 5 1;
#X connect 31 0 6 0;
#X connect 32 0 6 1;
#X connect 33 0 7 0;
#X connect 34 0 7 1;
#X connect 35 0 10 0;
#X connect 36 0 10 1;
#X connect 37 0 11 0;
#X connect 38 0 11 1;
#X connect 39 0 12 0;
#X connect 40 0 12 1;
#X connect 41 0 13 0;
#X connect 42 0 13 1;
#X connect 43 0 14 0;
#X connect 44 0 14 1;
#X connect 46 0 52 0;
#X connect 47 0 25 0;
#X connect 47 0 53 0;
#X connect 49 0 48 0;
#X connect 50 0 48 0;
#X connect 51 0 48 0;
#X connect 52 0 24 0;
#X connect 53 0 25 0;
#X connect 53 0 24 1;
#X connect 54 0 0 0;
#X connect 54 1 60 0;
#X connect 54 1 61 0;
#X connect 55 0 45 0;
#X connect 56 0 54 0;
#X connect 58 0 23 0;
#X connect 59 0 1 0;
#X connect 60 0 59 1;
#X connect 61 0 59 0;
#X restore -783 67 pd man_vocode;
#X obj -783 29 adc~;
#X obj -781 350 output~;
#X obj -783 114 *~ 0.9;
#N canvas 739 148 450 300 keyboard 0;
#X floatatom -369 233 5 0 0 0 - - -;
#X obj -445 30 key;
#X obj -445 115 bng 15 250 50 0 empty empty empty 17 7 0 10 -262144
-1 -1;
#X obj -421 115 bng 15 250 50 0 empty empty empty 17 7 0 10 -262144
-1 -1;
#X obj -433 134 bng 15 250 50 0 empty empty empty 17 7 0 10 -262144
-1 -1;
#X obj -397 115 bng 15 250 50 0 empty empty empty 17 7 0 10 -262144
-1 -1;
#X obj -409 134 bng 15 250 50 0 empty empty empty 17 7 0 10 -262144
-1 -1;
#X obj -385 134 bng 15 250 50 0 empty empty empty 17 7 0 10 -262144
-1 -1;
#X obj -350 115 bng 15 250 50 0 empty empty empty 17 7 0 10 -262144
-1 -1;
#X obj -362 134 bng 15 250 50 0 empty empty empty 17 7 0 10 -262144
-1 -1;
#X obj -326 115 bng 15 250 50 0 empty empty empty 17 7 0 10 -262144
-1 -1;
#X obj -338 134 bng 15 250 50 0 empty empty empty 17 7 0 10 -262144
-1 -1;
#X obj -314 134 bng 15 250 50 0 empty empty empty 17 7 0 10 -262144
-1 -1;
#X obj -279 115 bng 15 250 50 0 empty empty empty 17 7 0 10 -262144
-1 -1;
#X obj -291 134 bng 15 250 50 0 empty empty empty 17 7 0 10 -262144
-1 -1;
#X obj -255 115 bng 15 250 50 0 empty empty empty 17 7 0 10 -262144
-1 -1;
#X obj -267 134 bng 15 250 50 0 empty empty empty 17 7 0 10 -262144
-1 -1;
#X obj -243 134 bng 15 250 50 0 empty empty empty 17 7 0 10 -262144
-1 -1;
#X obj -445 59 select 113 97 119 115 101 100 102 116 103 121 104 106
105 107 111 108 112;
#X obj -231 115 bng 15 250 50 0 empty empty empty 17 7 0 10 -262144
-1 -1;
#X obj -369 258 outlet;
#X msg -445 172 42;
#X msg -433 196 43;
#X msg -422 172 44;
#X msg -409 196 45;
#X msg -397 172 46;
#X msg -385 196 47;
#X msg -362 196 48;
#X msg -350 173 49;
#X msg -338 196 50;
#X msg -326 173 51;
#X msg -314 196 52;
#X msg -291 196 53;
#X msg -279 174 54;
#X msg -267 196 55;
#X msg -255 174 56;
#X msg -243 196 57;
#X msg -231 174 58;
#X connect 0 0 20 0;
#X connect 1 0 18 0;
#X connect 2 0 21 0;
#X connect 3 0 23 0;
#X connect 4 0 22 0;
#X connect 5 0 25 0;
#X connect 6 0 24 0;
#X connect 7 0 26 0;
#X connect 8 0 28 0;
#X connect 9 0 27 0;
#X connect 10 0 30 0;
#X connect 11 0 29 0;
#X connect 12 0 31 0;
#X connect 13 0 33 0;
#X connect 14 0 32 0;
#X connect 15 0 35 0;
#X connect 16 0 34 0;
#X connect 17 0 36 0;
#X connect 18 0 2 0;
#X connect 18 1 4 0;
#X connect 18 2 3 0;
#X connect 18 3 6 0;
#X connect 18 4 5 0;
#X connect 18 5 7 0;
#X connect 18 6 9 0;
#X connect 18 7 8 0;
#X connect 18 8 11 0;
#X connect 18 9 10 0;
#X connect 18 10 12 0;
#X connect 18 11 14 0;
#X connect 18 12 13 0;
#X connect 18 13 16 0;
#X connect 18 14 15 0;
#X connect 18 15 17 0;
#X connect 18 16 19 0;
#X connect 19 0 37 0;
#X connect 21 0 0 0;
#X connect 22 0 0 0;
#X connect 23 0 0 0;
#X connect 24 0 0 0;
#X connect 25 0 0 0;
#X connect 26 0 0 0;
#X connect 27 0 0 0;
#X connect 28 0 0 0;
#X connect 29 0 0 0;
#X connect 30 0 0 0;
#X connect 31 0 0 0;
#X connect 32 0 0 0;
#X connect 33 0 0 0;
#X connect 34 0 0 0;
#X connect 35 0 0 0;
#X connect 36 0 0 0;
#X connect 37 0 0 0;
#X restore -708 29 pd keyboard;
#X obj -710 201 writesf~ 2;
#X msg -667 157 start;
#X msg -654 177 stop;
#X msg -683 137 open chinaman.wav;
#X connect 0 0 3 0;
#X connect 1 0 0 0;
#X connect 1 1 0 0;
#X connect 3 0 5 0;
#X connect 3 0 5 1;
#X connect 4 0 0 1;
#X connect 6 0 5 0;
#X connect 7 0 5 0;
#X connect 8 0 5 0;
